<?xml version="1.0" encoding="utf-8"?>
<!-- Generator: Adobe Illustrator 15.1.0, SVG Export Plug-In . SVG Version: 6.00 Build 0)  -->
<!DOCTYPE svg PUBLIC "-//W3C//DTD SVG 1.1//EN" "http://www.w3.org/Graphics/SVG/1.1/DTD/svg11.dtd">
<svg version="1.1" id="Layer_1" xmlns="http://www.w3.org/2000/svg" xmlns:xlink="http://www.w3.org/1999/xlink" x="0px" y="0px"
	 width="1024px" height="1024px" viewBox="0 0 1024 1024" enable-background="new 0 0 1024 1024" xml:space="preserve">
<g>
	<g>
		<path d="M463.595,940.132l-0.25-0.021c-3.519-0.305-86.395-7.92-114.289-50.226c-4.032-4.55-98.648-112.042-130.15-205.149
			c-1.758-3.819-43.139-93.542-55.099-107.61l-0.23-0.319c-0.118-0.193-11.882-19.539-23.224-39.885
			c-19.955-35.799-22.021-44.888-21.93-48.022c-2.907-4.196-14.937-22.94-9.184-38.049c3.229-8.479,11.349-14.134,24.135-16.808
			c0.064-0.017,3.494-0.834,9.187-0.834c17.605,0,62.104,8.15,95.059,83.583c3.173,6.258,12.251,23.227,16.659,27.625l0.287,0.286
			l0.182,0.362c0.095,0.188,9.586,19.072,20.509,37.697c20.412,34.804,26.928,36.567,28.027,36.567c0.031,0,0.056-0.002,0.075-0.005
			c2.986-2.031,40.546-28.352,40.459-64.914c-0.083-1.253-1.08-16.502-1.548-31.951c-0.817-26.952,0.513-33.453,1.868-35.572
			c0.012-4.189-0.246-21.877-5.111-36.279l-0.089-0.343c-1.181-6.339-11.37-61.451-10.592-70.81
			c-2.748-20.059-11.082-83.355-8.218-92.627c0.23-2.012,1.68-16.838-2.974-35.726l-0.066-0.42
			c-0.017-0.233-1.641-23.589,0.041-47.287c2.305-32.49,9.594-50.338,21.669-53.063c1.643-0.875,8.413-4.186,16.75-4.186
			c15.974,0,35.439,11.629,37.462,67.028l0.003,0.087l-1.033,30.798c-0.003,0.269-0.374,31.869,5.616,44.213l0.12,0.292
			c0.706,2.088,17.185,51.072,17.403,68.618c1.323,5.298,16.118,64.793,16.788,77.842c0.188,1.453,3.262,23.367,15.866,23.787
			l1.187,0.04l0.719,0.945c0.274,0.35,0.738,0.751,1.036,0.911c0.631-0.753,3.195-5.4,1.194-29.922
			c-0.018-0.181-2.086-21.839-3.366-43.71c-2.167-37.033-0.462-45.361,1.279-47.845c-0.119-5.21-0.582-28.163-0.114-51.348
			c0.926-45.942,4.598-54.997,7.151-57.469c0.162-4.558,0.778-21.021,1.795-37.61c1.993-32.525,3.849-39.943,5.277-42.189
			c0.4-7.065,4.685-50.026,49.294-50.026c0.447,0,0.895,0.004,1.351,0.013l0.688,0.013l0.584,0.364
			c0.365,0.227,9.024,5.705,15.841,17.889c6.21,11.101,11.994,30.127,4.375,57.799c-0.583,27.473-0.718,70.188,1.288,76.127
			l0.105,0.313l0.021,0.329c0.196,3.081,4.728,74.66,2.646,86.6c1.547,12.954,12.723,107.954,9.682,123.41
			c1.5,2.809,4.104,6.185,5.835,6.185c0.197,0,4.859-0.271,7.728-23.887c0.294-2.357,7.277-57.534,18.488-80.649
			c1.737-11.433,9.58-61.909,13.882-70.89c-0.19-4.345-1.041-26.792,0.977-41.499c-0.581-5.207-6.155-59.732,11.995-81.858
			c4.562-5.56,10.276-8.682,16.989-9.283c0.853-0.219,3.636-0.852,7.393-0.852c5.929,0,14.53,1.567,21.837,9.03
			c9.597,9.803,14.204,26.945,13.694,50.951c0.033,2.063,0.737,52.367-3.705,67.899c0.584,12.482,4.537,103.565-3.617,119.262
			c-6.673,41.684-16.506,109.094-15.131,116.59c1.858,1.784,10.598,9.706,19.174,9.706c7.482,0,13.064-6.337,16.591-18.835
			l0.078-0.275l0.138-0.251c0.578-1.051,14.241-25.816,25.02-39.013c1.72-2.789,28.178-45.816,33.493-61.945l0.179-0.413
			c0.149-0.275,14.993-27.736,17.155-48.544l0.067-0.374c0.689-2.637,17.193-64.582,43.94-64.582c2.227,0,4.474,0.428,6.684,1.273
			c1.8,0.392,11.344,2.978,17.656,14.766c7.706,14.392,11.153,44.491-16.188,106.171c-0.861,2.188-27.674,70.247-32.634,83.007
			l-0.05,0.12c-16.886,37.554-42,96.313-41.98,104.273l0.001,0.24l-0.046,0.236c-11.335,59.154-28.462,155.718-26.166,163.009
			l0.245,0.778l-0.246,0.82c-0.238,0.705-24.209,71.017-56.861,114.197c-0.417,0.524-9.521,11.839-27.446,23.265
			c-16.503,10.518-43.903,23.057-80.721,23.058c-7.607,0-15.438-0.535-23.28-1.591L463.595,940.132z M167.747,574.042
			c12.755,15.284,54.001,104.903,55.756,108.724l0.097,0.244c31.656,93.715,128.336,202.595,129.309,203.684l0.227,0.297
			c25.751,39.323,105.375,47.632,110.396,48.115l57.49-6.605l0.312,0.043c7.723,1.054,15.434,1.587,22.917,1.587
			c68.113-0.003,103.863-43.943,104.217-44.387c30.524-40.368,53.448-105.152,55.865-112.126
			c-2.049-15.678,21.252-138.713,26.164-164.353c0.534-12.567,37.949-96.131,42.388-106.002
			c5.079-13.067,32.362-82.318,32.638-83.018l0.041-0.097c26.545-59.865,23.555-88.42,16.372-101.833
			c-5.704-10.652-14.292-12.24-14.379-12.255l-0.254-0.044l-0.24-0.095c-1.69-0.667-3.393-1.006-5.059-1.006
			c-18.948,0-34.563,43.612-39.056,60.666c-2.255,21.062-16.128,47.276-17.609,50.027c-5.806,17.299-32.852,61.073-34.004,62.935
			l-0.193,0.27c-9.944,12.127-23.003,35.484-24.476,38.138c-4.219,14.729-11.393,22.196-21.323,22.196
			c-11.743,0-22.661-11.103-23.12-11.575l-0.199-0.232c-1.104-1.456-2.772-3.657,5.674-62.96
			c4.105-28.824,8.688-57.463,8.734-57.749l0.075-0.47l0.243-0.41c6.619-11.165,4.521-88.493,3.153-117.347l-0.021-0.433
			l0.126-0.415c4.354-14.268,3.622-66.357,3.614-66.882c0.48-22.702-3.647-38.632-12.268-47.438
			c-10.609-10.837-24.471-6.82-24.529-6.803l-0.494,0.09c-5.483,0.442-9.983,2.891-13.755,7.488
			c-17.323,21.112-10.928,77.859-10.86,78.43l0.037,0.32l-0.045,0.319c-2.187,15.502-0.958,41.323-0.945,41.582l0.045,0.924
			l-0.567,0.731c-2.396,3.399-8.745,38.554-13.5,69.901l-0.059,0.384l-0.172,0.349c-10.941,22.15-18.11,78.828-18.182,79.398
			c-2.342,19.289-6.374,28.276-12.689,28.276c-5.791,0-9.968-8.18-10.747-9.819l-0.449-0.947l0.36-0.984
			c2.757-7.538-4.285-77.471-9.691-122.638l-0.05-0.418l0.09-0.412c1.768-8.094-1.294-64.074-2.647-85.367
			c-2.802-9.9-1.586-70.803-1.436-77.797l0.007-0.314l0.084-0.303c12.879-46.285-13.285-67.096-17.418-70.04
			c-18.475-0.15-31.653,7.543-39.104,22.852c-5.591,11.489-5.749,23.071-5.75,23.187l-0.01,1.232l-0.784,0.592
			c-2.46,4.404-5.119,43.097-6.284,78.36l-0.047,1.442l-1.273,0.68c-0.77,0.592-4.864,6.138-5.802,54.846
			c-0.498,25.844,0.149,51.162,0.155,51.415l0.037,1.403l-0.982,0.634c-2.95,4.923-0.814,48.48,2.988,88.11
			c2.086,25.563-0.463,31.543-2.563,33.821c-1.224,1.328-2.577,1.606-3.496,1.606c-1.883,0-3.417-1.15-4.318-2.034
			c-16.306-1.633-19.454-27.1-19.582-28.207l-0.014-0.172c-0.59-12.663-16.56-76.607-16.721-77.251l-0.074-0.297l0-0.307
			c-0.019-16.019-16.084-64.185-17.094-67.193c-6.432-13.492-6.063-45.027-6.045-46.368l1.029-30.67
			c-1.499-40.64-12.724-62.124-32.462-62.124c-8.02,0-14.562,3.686-14.627,3.723l-0.355,0.204l-0.406,0.082
			c-20.055,3.946-19.874,69.673-18.098,94.96c5.163,21.113,3.084,36.958,2.994,37.624l-0.056,0.407l-0.183,0.367
			c-1.89,4.631,2.979,50.123,8.525,90.563l0.047,0.341l-0.047,0.341c-0.762,5.527,5.838,44.474,10.48,69.421
			c5.76,17.193,5.328,37.875,5.307,38.749l-0.029,1.207l-0.761,0.575c-2.136,4.142-1.446,35.843,0.476,64.448l0.006,0.158
			c0.155,40.665-41.147,68.167-42.905,69.317l-0.245,0.142c-0.732,0.368-1.535,0.556-2.384,0.556c-2.584,0-9.447,0-32.351-39.058
			c-10.185-17.368-19.129-34.947-20.479-37.618c-5.965-6.298-16.858-27.743-17.327-28.667l-0.061-0.13
			c-31.777-72.79-73.879-80.648-90.505-80.648c-5.038,0-8.061,0.705-8.091,0.712c-11.078,2.318-17.969,6.922-20.555,13.7
			c-5.415,14.197,8.973,33.939,9.119,34.137l0.671,0.91l-0.239,1.106C122.214,494.544,144.98,536.627,167.747,574.042z"/>
	</g>
	<g>
		<path d="M131.025,384.027c-5.19,0-9.931-0.958-14.224-2.874c-4.292-1.915-7.894-4.862-10.804-8.839h-0.873
			c0.582,4.656,0.873,9.07,0.873,13.241v32.812H93.921V302.834h9.822l1.673,10.913h0.582c3.104-4.365,6.717-7.518,10.84-9.458
			c4.122-1.939,8.851-2.91,14.187-2.91c10.573,0,18.734,3.614,24.481,10.84c5.748,7.228,8.622,17.364,8.622,30.411
			c0,13.096-2.923,23.27-8.767,30.52C149.516,380.402,141.404,384.027,131.025,384.027z M129.279,311.637
			c-8.148,0-14.042,2.255-17.679,6.766s-5.505,11.689-5.602,21.535v2.692c0,11.204,1.867,19.22,5.602,24.045
			c3.734,4.827,9.724,7.239,17.97,7.239c6.887,0,12.283-2.789,16.188-8.367c3.904-5.577,5.857-13.265,5.857-23.063
			c0-9.942-1.953-17.57-5.857-22.881C141.853,314.293,136.36,311.637,129.279,311.637z"/>
	</g>
	<g>
		<path d="M334.39,17.239c0-2.765,0.679-4.789,2.037-6.075c1.357-1.285,3.056-1.928,5.093-1.928c1.939,0,3.613,0.655,5.02,1.964
			c1.406,1.31,2.11,3.323,2.11,6.039c0,2.717-0.704,4.742-2.11,6.075c-1.407,1.335-3.081,2.001-5.02,2.001
			c-2.037,0-3.735-0.666-5.093-2.001C335.069,21.981,334.39,19.956,334.39,17.239z M347.486,118.585h-12.077V38.847h12.077V118.585z
			"/>
	</g>
	<g>
		<path d="M551.041,91.587V39.713c0-6.354-1.359-11.119-4.074-14.296c-2.717-3.176-6.938-4.765-12.66-4.765
			c-7.518,0-13.071,2.159-16.66,6.475c-3.59,4.317-5.384,10.962-5.384,19.935v44.525h-12.077V39.713
			c0-6.354-1.358-11.119-4.074-14.296c-2.717-3.176-6.96-4.765-12.732-4.765c-7.566,0-13.108,2.268-16.625,6.802
			c-3.517,4.536-5.274,11.968-5.274,22.299v41.833h-12.077V11.849h9.822l1.964,10.913h0.582c2.279-3.88,5.493-6.912,9.64-9.094
			c4.147-2.183,8.791-3.274,13.933-3.274c12.465,0,20.613,4.511,24.445,13.532h0.582c2.376-4.171,5.82-7.469,10.331-9.895
			c4.511-2.425,9.651-3.638,15.424-3.638c9.021,0,15.774,2.317,20.262,6.948c4.485,4.632,6.729,12.041,6.729,22.226v52.019H551.041z
			"/>
	</g>
	<g>
		<path d="M660.431,141.084l-2.401-11.35h-0.582c-3.977,4.996-7.942,8.379-11.895,10.149c-3.954,1.77-8.889,2.655-14.806,2.655
			c-7.906,0-14.103-2.037-18.589-6.111s-6.729-9.87-6.729-17.388c0-16.103,12.878-24.542,38.632-25.318l13.533-0.437v-4.947
			c0-6.257-1.347-10.876-4.038-13.86c-2.692-2.982-6.997-4.474-12.914-4.474c-6.646,0-14.163,2.037-22.554,6.111l-3.711-9.24
			c3.93-2.134,8.232-3.807,12.914-5.02c4.68-1.212,9.373-1.819,14.078-1.819c9.506,0,16.552,2.11,21.135,6.33
			c4.584,4.22,6.875,10.986,6.875,20.298v54.42H660.431z M633.149,132.572c7.518,0,13.423-2.061,17.715-6.184
			c4.293-4.122,6.439-9.895,6.439-17.315v-7.203l-12.078,0.509c-9.604,0.34-16.527,1.832-20.771,4.475
			c-4.245,2.644-6.366,6.754-6.366,12.332c0,4.365,1.32,7.688,3.965,9.967C624.696,131.433,628.395,132.572,633.149,132.572z"/>
	</g>
</g>
</svg>
